<!DOCTYPE svg PUBLIC "-//W3C//DTD SVG 1.1//EN" "http://www.w3.org/Graphics/SVG/1.1/DTD/svg11.dtd">
<!-- Uploaded to: SVG Repo, www.svgrepo.com, Transformed by: SVG Repo Mixer Tools -->
<svg fill="#b9830e" version="1.1" id="Layer_1" xmlns="http://www.w3.org/2000/svg" xmlns:xlink="http://www.w3.org/1999/xlink" viewBox="0 0 295.24 295.24" xml:space="preserve" width="800px" height="800px" stroke="#b9830e" stroke-width="0.00295238">
<g id="SVGRepo_bgCarrier" stroke-width="0"/>
<g id="SVGRepo_tracerCarrier" stroke-linecap="round" stroke-linejoin="round"/>
<g id="SVGRepo_iconCarrier"> <g> <g> <g> <path d="M152.381,152.381v9.524h-9.524V123.81h52.381c7.781,0,14.7-3.752,19.048-9.538l42.857,0.014V42.857 c0-13.129-10.681-23.81-23.81-23.81h-52.862C178.257,8.195,168.638,0,157.143,0H52.381c-13.129,0-23.81,10.681-23.81,23.81 v128.571H0v76.19h38.095v66.667h114.286h9.524h133.333V152.381H152.381z M219.048,100V42.857c0-7.876,6.41-14.286,14.286-14.286 c7.876,0,14.285,6.41,14.285,14.286v61.905h-29.052C218.881,103.224,219.048,101.629,219.048,100z M180.952,28.571h33.457 c-3.023,3.991-4.885,8.905-4.885,14.286V100c0,7.876-6.41,14.286-14.286,14.286c-7.876,0-14.286-6.41-14.286-14.286V28.571z M142.858,23.81c0-7.876,6.41-14.286,14.286-14.286c7.876,0,14.285,6.409,14.285,14.286V100c0,5.381,1.862,10.295,4.886,14.286 h-33.457V23.81z M38.095,23.81c0-7.876,6.41-14.286,14.286-14.286h85.838c-3.024,3.99-4.886,8.905-4.886,14.286v138.095h-9.524 v-9.524H38.095V23.81z M9.524,219.048v-57.143h104.762v57.143h-76.19H9.524z M47.619,285.714v-57.143h76.19h28.571v57.143H47.619 z M152.381,219.048H123.81v-47.619h28.571V219.048z M285.714,285.714h-123.81v-66.667v-57.143h123.81V285.714z"/> <rect x="47.619" y="171.429" width="28.571" height="9.524"/> <rect x="85.714" y="238.095" width="28.571" height="9.524"/> <path d="M123.81,28.571H47.62v52.381h76.19V28.571z M114.286,71.429H57.143V38.095h57.143V71.429z"/> <rect x="47.619" y="90.476" width="76.19" height="9.524"/> <rect x="47.619" y="109.524" width="76.19" height="9.524"/> <rect x="47.619" y="128.571" width="38.095" height="9.524"/> <rect x="114.286" y="128.571" width="9.524" height="9.524"/> <rect x="95.238" y="128.571" width="9.524" height="9.524"/> </g> </g> </g> </g>
</svg>